PathFileType	4	(X/Y/Z)	pose_F01_0-95.trc
DataRate	CameraRate	NumFrames	NumMarkers	Units	OrigDataRate	OrigDataStartFrame	OrigNumFrames
30	30	8	21	m	30	0	95
Frame#	Time	CHip			RHip			RKnee			RAnkle			RBigToe			RSmallToe			RHeel			LHip			LKnee			LAnkle			LBigToe			LSmallToe			LHeel			Neck			Nose			RShoulder			RElbow			RWrist			LShoulder			LElbow			LWrist			
		X1	Y1	Z1	X2	Y2	Z2	X3	Y3	Z3	X4	Y4	Z4	X5	Y5	Z5	X6	Y6	Z6	X7	Y7	Z7	X8	Y8	Z8	X9	Y9	Z9	X10	Y10	Z10	X11	Y11	Z11	X12	Y12	Z12	X13	Y13	Z13	X14	Y14	Z14	X15	Y15	Z15	X16	Y16	Z16	X17	Y17	Z17	X18	Y18	Z18	X19	Y19	Z19	X20	Y20	Z20	X21	Y21	Z21	
0	0.0	-0.26365942280229526	1.8204521439243633	-0.5105333143483975	-0.28038178233718586	1.8315123825612663	-0.45334051379285484	-0.25480887769832206	1.7071037444395407	-0.556459190312462													-0.2508462032748924	1.8235615103393799	-0.5679583348036725	-0.24991126524326115	1.6972180613339505	-0.5386477629282677													-0.2573221597031665	1.9867444565025993	-0.5380974539269436	-0.24870055322645224	2.059722451023714	-0.5206969164241445	-0.28140060632124386	1.9901229089235184	-0.44657837163180764	-0.2859400123446919	1.9036758895306887	-0.4240911455310529	-0.2840509506147261	1.8393379989887981	-0.37648206135888357	-0.23165613501226467	1.998497379361736	-0.6287946538448731	-0.22426460215496724	1.9025163746557463	-0.6380496994451033	-0.23018559859209933	1.828762327570981	-0.6399398650453789
1	0.03333333333333333	-0.2632916425998823	1.822333805347371	-0.5109786200833953	-0.28007524659728505	1.830545245214166	-0.45346834392836116	-0.25480887769832206	1.7071037444395407	-0.556459190312462													-0.2504457934858917	1.8254638267780237	-0.5683865307211877	-0.24991126524326115	1.6972180613339505	-0.5386477629282677													-0.2581613987971398	1.9880001900608668	-0.5412022884279385	-0.24872505157459726	2.059646902414357	-0.5206987246822707	-0.28239178414334437	1.9902112769635618	-0.44972574713959096	-0.2878580547504583	1.903406402264424	-0.4220535338838981	-0.28539832505705603	1.8362376241675162	-0.3793666623062112	-0.23250553348241407	1.9975844450113014	-0.631545135425215	-0.2249218861848789	1.902741856688653	-0.6411845142215495	-0.22892061462110216	1.8280907987684918	-0.6370836980965102
2	0.06666666666666667	-0.26292386239746934	1.8242154667703787	-0.5114239258183931	-0.27976871085738425	1.8295781078670657	-0.4535961740638675	-0.25480887769832206	1.7071037444395407	-0.556459190312462													-0.250045383696891	1.8273661432166675	-0.5688147266387029	-0.24991126524326115	1.6972180613339505	-0.5386477629282677													-0.25900063789111305	1.9892559236191343	-0.5443071229289334	-0.24874954992274229	2.0595713538049996	-0.520700532940397	-0.2833829619654449	1.9902996450036052	-0.4528731226473743	-0.28977609715622465	1.9031369149981592	-0.4200159222367433	-0.28674569949938594	1.8331372493462343	-0.3822512632535388	-0.23335493195256346	1.9966715106608668	-0.6342956170055568	-0.22557917021479057	1.9029673387215595	-0.6443193289979958	-0.227655630650105	1.8274192699660026	-0.6342275311476415
3	0.1	-0.2625560821950564	1.8260971281933864	-0.5118692315533909	-0.27946217511748345	1.8286109705199654	-0.4537240041993738	-0.25480887769832206	1.7071037444395407	-0.556459190312462													-0.24964497390789026	1.8292684596553113	-0.5692429225562181	-0.24991126524326115	1.6972180613339505	-0.5386477629282677													-0.2598398769850863	1.9905116571774017	-0.5474119574299282	-0.2487740482708873	2.0594958051956422	-0.5207023411985232	-0.2843741397875454	1.9903880130436487	-0.4560204981551576	-0.29169413956199103	1.9028674277318944	-0.41797831058958845	-0.28809307394171585	1.8300368745249525	-0.38513586420086643	-0.23420433042271285	1.9957585763104322	-0.6370460985858987	-0.22623645424470223	1.9031928207544662	-0.6474541437744421	-0.22639064667910783	1.8267477411635133	-0.6313713641987728
4	0.13333333333333333	-0.2621883019926434	1.8279787896163942	-0.5123145372883887	-0.27915563937758264	1.827643833172865	-0.45385183433488013	-0.25480887769832206	1.7071037444395407	-0.556459190312462													-0.24924456411888954	1.831170776093955	-0.5696711184737333	-0.24991126524326115	1.6972180613339505	-0.5386477629282677													-0.2606791160790596	1.9917673907356692	-0.5505167919309231	-0.24879854661903233	2.059420256586285	-0.5207041494566494	-0.2853653176096459	1.990476381083692	-0.45916787366294093	-0.2936121819677574	1.9025979404656297	-0.41594069894243363	-0.28944044838404576	1.8269364997036706	-0.38802046514819405	-0.23505372889286225	1.9948456419599976	-0.6397965801662405	-0.2268937382746139	1.9034183027873728	-0.6505889585508884	-0.22512566270811066	1.8260762123610241	-0.6285151972499041
5	0.16666666666666666	-0.26182052179023046	1.8298604510394019	-0.5127598430233865	-0.27884910363768184	1.8266766958257648	-0.45397966447038646	-0.25480887769832206	1.7071037444395407	-0.556459190312462													-0.24884415432988882	1.8330730925325989	-0.5700993143912485	-0.24991126524326115	1.6972180613339505	-0.5386477629282677													-0.26151835517303285	1.9930231242939367	-0.5536216264319179	-0.24882304496717736	2.0593447079769276	-0.5207059577147757	-0.2863564954317464	1.9905647491237355	-0.46231524917072425	-0.2955302243735238	1.902328453199365	-0.4139030872952788	-0.29078782282637566	1.8238361248823887	-0.39090506609552167	-0.23590312736301164	1.993932707609563	-0.6425470617465824	-0.22755102230452556	1.9036437848202794	-0.6537237733273347	-0.2238606787371135	1.825404683558535	-0.6256590303010354
6	0.2	-0.26171683279925	1.826282722831593	-0.5123546968972296	-0.27859844377057463	1.824587214104807	-0.45371196059651026	-0.25480887769832206	1.7071037444395407	-0.556459190312462													-0.24667930524322418	1.828585163819095	-0.5717341663699828	-0.24991126524326115	1.6972180613339505	-0.5386477629282677													-0.2616442794977504	1.9918341847915422	-0.5537280115396357	-0.24975298792208908	2.059447376646787	-0.5236694059027722	-0.28638909313017646	1.9905800177915036	-0.46237156729901857	-0.29543168648476	1.9011634508818032	-0.4135257449244744	-0.29131231567390664	1.8235166306261323	-0.38543034583794356	-0.23595391955443018	1.9952064416409283	-0.6429399691897328	-0.2295821424744538	1.9035041405163604	-0.6514192843891375	-0.22438916804414544	1.8258884241143527	-0.6288229325897405
7	0.23333333333333334	-0.2616374586535338	1.8289244056124632	-0.5126235594888768	-0.2784891006321903	1.8268474064125861	-0.45402371136240066	-0.25480887769832206	1.7071037444395407	-0.556459190312462													-0.24580968227756714	1.8321720773621548	-0.5689952455536028	-0.24991126524326115	1.6972180613339505	-0.5386477629282677													-0.2615724646104176	1.9928835494281998	-0.5536748678419029	-0.24986570829544613	2.0582437350267346	-0.5238073711062309	-0.286438942196493	1.9905057815763132	-0.46236199649786797	-0.2956611758392727	1.9012799978054948	-0.41368073177895176	-0.29260907237904377	1.8248896472796192	-0.3800983297176305	-0.2359926873560704	1.9951241734895968	-0.6429867930974974	-0.22734618142636265	1.9043677423213872	-0.6537436114788246	-0.22426945090450456	1.8268542129379868	-0.6291356896599005
